<svg width="24" height="24" viewBox="0 0 24 24" fill="none" xmlns="http://www.w3.org/2000/svg">
<rect width="24" height="24" fill="#374836"/>
<path d="M11.2871 14.418V16H6.97461V14.418H11.2871ZM7.70703 7.46875V16H5.65039V7.46875H7.70703ZM15.5141 16H13.6215L13.6332 14.418H15.5141C15.9047 14.418 16.2348 14.3242 16.5043 14.1367C16.7777 13.9492 16.9848 13.6699 17.1254 13.2988C17.2699 12.9238 17.3422 12.4629 17.3422 11.916V11.5469C17.3422 11.1367 17.3012 10.7773 17.2191 10.4688C17.141 10.1562 17.0238 9.89648 16.8676 9.68945C16.7113 9.47852 16.516 9.32031 16.2816 9.21484C16.0512 9.10938 15.7855 9.05664 15.4848 9.05664H13.5863V7.46875H15.4848C16.0629 7.46875 16.5922 7.56836 17.0727 7.76758C17.557 7.96289 17.975 8.24414 18.3266 8.61133C18.682 8.97461 18.9555 9.40625 19.1469 9.90625C19.3422 10.4023 19.4398 10.9531 19.4398 11.5586V11.916C19.4398 12.5176 19.3422 13.0684 19.1469 13.5684C18.9555 14.0684 18.684 14.5 18.3324 14.8633C17.9809 15.2266 17.5648 15.5078 17.0844 15.707C16.6078 15.9023 16.0844 16 15.5141 16ZM14.7992 7.46875V16H12.7426V7.46875H14.7992Z" fill="white"/>
</svg>
