<svg width="22" height="22" viewBox="0 0 22 22" fill="none" xmlns="http://www.w3.org/2000/svg">
<path d="M6.81174 21.0587L20.6903 16.0073C21.0095 15.8912 21.1743 15.5378 21.0581 15.2186C20.9419 14.8994 20.5885 14.7346 20.2693 14.8508L7.78703 19.394L15.9861 1.81057C16.1297 1.50257 15.9965 1.13652 15.6885 0.992895C15.5343 0.92099 15.366 0.918386 15.218 0.972267C15.0699 1.02615 14.9424 1.13641 14.8708 1.2905L6.67146 18.874L2.12817 6.39144C2.01199 6.07223 1.65863 5.90746 1.33942 6.02364C1.02022 6.13982 0.855443 6.49318 0.971624 6.81239L6.023 20.6909C6.13918 21.0101 6.49254 21.1749 6.81174 21.0587Z" fill="#374836"/>
</svg>
