<svg width="22" height="30" viewBox="0 0 22 30" fill="none" xmlns="http://www.w3.org/2000/svg">
<path d="M11 0C4.93447 0 0 4.97132 0 11.0821C0 13.0939 0.895529 15.2575 0.933059 15.3488C1.22229 16.0404 1.793 17.1147 2.20453 17.7445L9.74665 29.2575C10.0553 29.7295 10.5121 30 11 30C11.4879 30 11.9447 29.7295 12.2534 29.2581L19.7961 17.7445C20.2083 17.1147 20.7784 16.0404 21.0676 15.3488C21.1051 15.2581 22 13.0945 22 11.0821C22 4.97132 17.0655 0 11 0ZM19.8744 14.8429C19.6162 15.4628 19.085 16.4622 18.7155 17.0267L11.1728 28.5404C11.0239 28.7679 10.9767 28.7679 10.8279 28.5404L3.28512 17.0267C2.91565 16.4622 2.38441 15.4622 2.12624 14.8422C2.11523 14.8155 1.29412 12.824 1.29412 11.0821C1.29412 5.69035 5.64818 1.30378 11 1.30378C16.3518 1.30378 20.7059 5.69035 20.7059 11.0821C20.7059 12.8266 19.8828 14.8233 19.8744 14.8429Z" fill="#F9FBF3"/>
<path d="M11.0003 5.21582C7.78893 5.21582 5.17676 7.84815 5.17676 11.0828C5.17676 14.3175 7.78893 16.9498 11.0003 16.9498C14.2116 16.9498 16.8238 14.3175 16.8238 11.0828C16.8238 7.84815 14.2116 5.21582 11.0003 5.21582ZM11.0003 15.6461C8.50329 15.6461 6.47088 13.5991 6.47088 11.0828C6.47088 8.56654 8.50329 6.5196 11.0003 6.5196C13.4973 6.5196 15.5297 8.56654 15.5297 11.0828C15.5297 13.5991 13.4973 15.6461 11.0003 15.6461Z" fill="#F9FBF3"/>
</svg>
